# xmcd
#
# Track frame offsets:
#	150
#	11802
#	29892
#	46062
#	56305
#	73472
#	87932
#	99455
#	112882
#	127365
#
# Disc length: 1910 seconds
#
# Revision: 1
# Processed by: cddbd v1.5.2PL0 Copyright (c) Steve Scherf et al.
# Submitted via: audiograbber 1.83.01
#
DISCID=8d07740a
DTITLE=Jerrod Niemann - Long Hard Road
DYEAR=1998
DGENRE=Country
TTITLE0=I've Been There
TTITLE1=Long Hard Road
TTITLE2=That's The Way Love Is
TTITLE3=Balck Jack
TTITLE4=You've Already Done Enough
TTITLE5=Miles In The Sky
TTITLE6=I'm Hooked On You
TTITLE7=When I'm Awake
TTITLE8=Somebody's Got To Lose
TTITLE9=The Shadow
EXTD=
EXTT0=
EXTT1=
EXTT2=
EXTT3=
EXTT4=
EXTT5=
EXTT6=
EXTT7=
EXTT8=
EXTT9=
PLAYORDER=
